<mxfile host="app.diagrams.net" modified="2023-03-31T02:01:32.040Z" agent="Mozilla/5.0 (Windows NT 10.0; Win64; x64) AppleWebKit/537.36 (KHTML, like Gecko) Chrome/111.0.0.0 Safari/537.36" etag="fqtJ526oy1YGnfwTia22" version="21.1.1" type="github">
  <diagram name="PÃ¡gina-1" id="rHiKEcINF7q2g3pPCwi3">
    <mxGraphModel dx="2309" dy="804" grid="0" gridSize="10" guides="1" tooltips="1" connect="1" arrows="1" fold="1" page="0" pageScale="1" pageWidth="827" pageHeight="1169" math="0" shadow="0">
      <root>
        <mxCell id="0" />
        <mxCell id="1" parent="0" />
        <mxCell id="V513l5ud7c-uvXv4waG8-2" value="ADM" style="rounded=1;whiteSpace=wrap;html=1;fillColor=#6a00ff;strokeColor=#3700CC;fontColor=#ffffff;" vertex="1" parent="1">
          <mxGeometry x="-670" y="190" width="120" height="60" as="geometry" />
        </mxCell>
        <mxCell id="V513l5ud7c-uvXv4waG8-4" value="VISITAS" style="ellipse;whiteSpace=wrap;html=1;fillColor=#e6d0de;gradientColor=#d5739d;strokeColor=#996185;" vertex="1" parent="1">
          <mxGeometry x="-180" y="170" width="120" height="80" as="geometry" />
        </mxCell>
        <mxCell id="V513l5ud7c-uvXv4waG8-8" value="MANAGER" style="rounded=1;whiteSpace=wrap;html=1;fillColor=#6a00ff;strokeColor=#3700CC;fontColor=#ffffff;" vertex="1" parent="1">
          <mxGeometry x="-670" y="290" width="120" height="60" as="geometry" />
        </mxCell>
        <mxCell id="V513l5ud7c-uvXv4waG8-9" value="BUYER" style="rounded=1;whiteSpace=wrap;html=1;fillColor=#6a00ff;strokeColor=#3700CC;fontColor=#ffffff;" vertex="1" parent="1">
          <mxGeometry x="-670" y="390" width="120" height="60" as="geometry" />
        </mxCell>
        <mxCell id="V513l5ud7c-uvXv4waG8-10" value="VENDOR" style="rounded=1;whiteSpace=wrap;html=1;fillColor=#60a917;strokeColor=#2D7600;fontColor=#ffffff;" vertex="1" parent="1">
          <mxGeometry x="-670" y="480" width="120" height="60" as="geometry" />
        </mxCell>
        <mxCell id="V513l5ud7c-uvXv4waG8-11" value="AGENT" style="rounded=1;whiteSpace=wrap;html=1;fillColor=#d80073;fontColor=#ffffff;strokeColor=#A50040;" vertex="1" parent="1">
          <mxGeometry x="-670" y="670" width="120" height="60" as="geometry" />
        </mxCell>
        <mxCell id="V513l5ud7c-uvXv4waG8-12" value="OPERATOR" style="rounded=1;whiteSpace=wrap;html=1;fillColor=#e3c800;fontColor=#000000;strokeColor=#B09500;" vertex="1" parent="1">
          <mxGeometry x="-670" y="770" width="120" height="60" as="geometry" />
        </mxCell>
        <mxCell id="V513l5ud7c-uvXv4waG8-13" value="EXTERNAL" style="rounded=1;whiteSpace=wrap;html=1;fillColor=#a0522d;fontColor=#ffffff;strokeColor=#6D1F00;" vertex="1" parent="1">
          <mxGeometry x="-670" y="570" width="120" height="60" as="geometry" />
        </mxCell>
        <mxCell id="V513l5ud7c-uvXv4waG8-14" value="CARTEIRA" style="ellipse;whiteSpace=wrap;html=1;fillColor=#dae8fc;gradientColor=#7ea6e0;strokeColor=#6c8ebf;" vertex="1" parent="1">
          <mxGeometry x="-180" y="270" width="120" height="80" as="geometry" />
        </mxCell>
        <mxCell id="V513l5ud7c-uvXv4waG8-15" value="OPORTUNIDADES" style="ellipse;whiteSpace=wrap;html=1;fillColor=#fff2cc;gradientColor=#ffd966;strokeColor=#d6b656;" vertex="1" parent="1">
          <mxGeometry x="-180" y="370" width="120" height="80" as="geometry" />
        </mxCell>
        <mxCell id="V513l5ud7c-uvXv4waG8-16" value="CENTRAL MET" style="ellipse;whiteSpace=wrap;html=1;fillColor=#f8cecc;gradientColor=#ea6b66;strokeColor=#b85450;" vertex="1" parent="1">
          <mxGeometry x="-180" y="560" width="120" height="80" as="geometry" />
        </mxCell>
        <mxCell id="V513l5ud7c-uvXv4waG8-17" value="MINHA CONTA" style="ellipse;whiteSpace=wrap;html=1;fillColor=#f5f5f5;gradientColor=#b3b3b3;strokeColor=#666666;" vertex="1" parent="1">
          <mxGeometry x="-180" y="670" width="120" height="80" as="geometry" />
        </mxCell>
        <mxCell id="V513l5ud7c-uvXv4waG8-18" value="GIP" style="ellipse;whiteSpace=wrap;html=1;fillColor=#ffcd28;strokeColor=#d79b00;gradientColor=#ffa500;" vertex="1" parent="1">
          <mxGeometry x="-180" y="770" width="120" height="80" as="geometry" />
        </mxCell>
        <mxCell id="V513l5ud7c-uvXv4waG8-19" value="" style="shape=crossbar;whiteSpace=wrap;html=1;rounded=1;direction=south;fillColor=#6a00ff;fontColor=#ffffff;strokeColor=#3700CC;" vertex="1" parent="1">
          <mxGeometry x="-520" y="180" width="20" height="280" as="geometry" />
        </mxCell>
        <mxCell id="V513l5ud7c-uvXv4waG8-20" value="" style="curved=1;endArrow=classic;html=1;rounded=0;exitX=0.5;exitY=0.5;exitDx=0;exitDy=0;exitPerimeter=0;fillColor=#6a00ff;strokeColor=#3700CC;entryX=0.025;entryY=0.332;entryDx=0;entryDy=0;entryPerimeter=0;" edge="1" parent="1" source="V513l5ud7c-uvXv4waG8-19" target="V513l5ud7c-uvXv4waG8-33">
          <mxGeometry width="50" height="50" relative="1" as="geometry">
            <mxPoint x="-370" y="500" as="sourcePoint" />
            <mxPoint x="-370" y="290" as="targetPoint" />
            <Array as="points">
              <mxPoint x="-460" y="360" />
              <mxPoint x="-440" y="260" />
            </Array>
          </mxGeometry>
        </mxCell>
        <mxCell id="V513l5ud7c-uvXv4waG8-22" value="" style="curved=1;endArrow=classic;html=1;rounded=0;exitX=1;exitY=0.5;exitDx=0;exitDy=0;entryX=0;entryY=0.5;entryDx=0;entryDy=0;fillColor=#f0a30a;strokeColor=#BD7000;" edge="1" parent="1" source="V513l5ud7c-uvXv4waG8-12" target="V513l5ud7c-uvXv4waG8-18">
          <mxGeometry width="50" height="50" relative="1" as="geometry">
            <mxPoint x="-370" y="820" as="sourcePoint" />
            <mxPoint x="-320" y="770" as="targetPoint" />
            <Array as="points">
              <mxPoint x="-400" y="720" />
              <mxPoint x="-290" y="790" />
            </Array>
          </mxGeometry>
        </mxCell>
        <mxCell id="V513l5ud7c-uvXv4waG8-24" value="" style="curved=1;endArrow=classic;html=1;rounded=0;exitX=1;exitY=0.5;exitDx=0;exitDy=0;fillColor=#a0522d;strokeColor=#6D1F00;" edge="1" parent="1" source="V513l5ud7c-uvXv4waG8-13" target="V513l5ud7c-uvXv4waG8-15">
          <mxGeometry width="50" height="50" relative="1" as="geometry">
            <mxPoint x="-340" y="530" as="sourcePoint" />
            <mxPoint x="-290" y="480" as="targetPoint" />
            <Array as="points">
              <mxPoint x="-450" y="530" />
              <mxPoint x="-340" y="470" />
            </Array>
          </mxGeometry>
        </mxCell>
        <mxCell id="V513l5ud7c-uvXv4waG8-25" value="" style="endArrow=none;html=1;rounded=0;exitX=1;exitY=0.5;exitDx=0;exitDy=0;fillColor=#60a917;strokeColor=#2D7600;" edge="1" parent="1" source="V513l5ud7c-uvXv4waG8-10">
          <mxGeometry width="50" height="50" relative="1" as="geometry">
            <mxPoint x="-500" y="530" as="sourcePoint" />
            <mxPoint x="-510" y="500" as="targetPoint" />
          </mxGeometry>
        </mxCell>
        <mxCell id="V513l5ud7c-uvXv4waG8-26" value="" style="curved=1;endArrow=classic;html=1;rounded=0;entryX=0;entryY=0.5;entryDx=0;entryDy=0;fillColor=#60a917;strokeColor=#2D7600;" edge="1" parent="1" target="V513l5ud7c-uvXv4waG8-27">
          <mxGeometry width="50" height="50" relative="1" as="geometry">
            <mxPoint x="-510" y="500" as="sourcePoint" />
            <mxPoint x="-260" y="490" as="targetPoint" />
            <Array as="points">
              <mxPoint x="-380" y="430" />
            </Array>
          </mxGeometry>
        </mxCell>
        <mxCell id="V513l5ud7c-uvXv4waG8-27" value="AJUDA" style="ellipse;whiteSpace=wrap;html=1;fillColor=#d5e8d4;gradientColor=#97d077;strokeColor=#82b366;" vertex="1" parent="1">
          <mxGeometry x="-180" y="460" width="120" height="80" as="geometry" />
        </mxCell>
        <mxCell id="V513l5ud7c-uvXv4waG8-28" value="" style="curved=1;endArrow=classic;html=1;rounded=0;entryX=0;entryY=0.5;entryDx=0;entryDy=0;fillColor=#60a917;strokeColor=#2D7600;" edge="1" parent="1" target="V513l5ud7c-uvXv4waG8-17">
          <mxGeometry width="50" height="50" relative="1" as="geometry">
            <mxPoint x="-510" y="500" as="sourcePoint" />
            <mxPoint x="-200" y="660" as="targetPoint" />
            <Array as="points">
              <mxPoint x="-420" y="510" />
              <mxPoint x="-360" y="550" />
            </Array>
          </mxGeometry>
        </mxCell>
        <mxCell id="V513l5ud7c-uvXv4waG8-29" value="" style="endArrow=none;html=1;rounded=0;exitX=1;exitY=0.5;exitDx=0;exitDy=0;fillColor=#d80073;strokeColor=#A50040;" edge="1" parent="1" source="V513l5ud7c-uvXv4waG8-11">
          <mxGeometry width="50" height="50" relative="1" as="geometry">
            <mxPoint x="-490" y="610" as="sourcePoint" />
            <mxPoint x="-470" y="680" as="targetPoint" />
          </mxGeometry>
        </mxCell>
        <mxCell id="V513l5ud7c-uvXv4waG8-30" value="" style="curved=1;endArrow=classic;html=1;rounded=0;entryX=0.016;entryY=0.674;entryDx=0;entryDy=0;fillColor=#d80073;strokeColor=#A50040;entryPerimeter=0;" edge="1" parent="1" target="V513l5ud7c-uvXv4waG8-27">
          <mxGeometry width="50" height="50" relative="1" as="geometry">
            <mxPoint x="-470" y="680" as="sourcePoint" />
            <mxPoint x="-390" y="550" as="targetPoint" />
            <Array as="points">
              <mxPoint x="-320" y="520" />
            </Array>
          </mxGeometry>
        </mxCell>
        <mxCell id="V513l5ud7c-uvXv4waG8-31" value="" style="curved=1;endArrow=classic;html=1;rounded=0;entryX=0.016;entryY=0.397;entryDx=0;entryDy=0;entryPerimeter=0;fillColor=#d80073;strokeColor=#A50040;" edge="1" parent="1" target="V513l5ud7c-uvXv4waG8-16">
          <mxGeometry width="50" height="50" relative="1" as="geometry">
            <mxPoint x="-470" y="680" as="sourcePoint" />
            <mxPoint x="-210" y="560" as="targetPoint" />
            <Array as="points">
              <mxPoint x="-260" y="590" />
            </Array>
          </mxGeometry>
        </mxCell>
        <mxCell id="V513l5ud7c-uvXv4waG8-33" value="&lt;div style=&quot;text-align: justify;&quot;&gt;&lt;span style=&quot;background-color: initial;&quot;&gt;TODAS AS&lt;/span&gt;&lt;/div&gt;&lt;div style=&quot;text-align: justify;&quot;&gt;&lt;span style=&quot;background-color: initial;&quot;&gt;&amp;nbsp;OPÃÃES&lt;/span&gt;&lt;/div&gt;" style="ellipse;whiteSpace=wrap;html=1;align=center;fillColor=#6a00ff;fontColor=#ffffff;strokeColor=#3700CC;" vertex="1" parent="1">
          <mxGeometry x="-380" y="250" width="120" height="80" as="geometry" />
        </mxCell>
        <mxCell id="V513l5ud7c-uvXv4waG8-34" value="" style="curved=1;endArrow=classic;html=1;rounded=0;entryX=0.016;entryY=0.588;entryDx=0;entryDy=0;entryPerimeter=0;fillColor=#d80073;strokeColor=#A50040;" edge="1" parent="1" target="V513l5ud7c-uvXv4waG8-17">
          <mxGeometry width="50" height="50" relative="1" as="geometry">
            <mxPoint x="-470" y="680" as="sourcePoint" />
            <mxPoint x="-168" y="622" as="targetPoint" />
            <Array as="points">
              <mxPoint x="-300" y="740" />
            </Array>
          </mxGeometry>
        </mxCell>
      </root>
    </mxGraphModel>
  </diagram>
</mxfile>
